<!--
  Lucide's "drill" glyph (ISC licensed), the same mark the towers carry
  in-game. Stroked rather than filled like the other sources here, because
  a solid drill at 32px reads as a blob.
-->
<svg xmlns="http://www.w3.org/2000/svg" viewBox="0 0 24 24" width="32" height="32"
     fill="none" stroke="#ffffff" stroke-width="2"
     stroke-linecap="round" stroke-linejoin="round">
  <path d="M10 18a1 1 0 0 1 1 1v2a1 1 0 0 1-1 1H5a3 3 0 0 1-3-3 1 1 0 0 1 1-1z"/>
  <path d="M13 10H4a2 2 0 0 1-2-2V4a2 2 0 0 1 2-2h9a1 1 0 0 1 1 1v6a1 1 0 0 1-1 1l-.81 3.242a1 1 0 0 1-.97.758H8"/>
  <path d="M14 4h3a1 1 0 0 1 1 1v2a1 1 0 0 1-1 1h-3"/>
  <path d="M18 6h4"/>
  <path d="m5 10-2 8"/>
  <path d="m7 18 2-8"/>
</svg>
